HIERARCHY
ROOT newVegas:Hips
{
	OFFSET 0.000000 96.479958 0.000000
	CHANNELS 6 Xposition Yposition Zposition Xrotation Yrotation Zrotation
	JOINT newVegas:Pelvis
	{
		OFFSET 0.000000 0.000000 0.000000
		CHANNELS 3 Xrotation Yrotation Zrotation
		JOINT newVegas:LeftUpLeg
		{
			OFFSET 18.735201 -5.666702 -4.541200
			CHANNELS 3 Xrotation Yrotation Zrotation
			JOINT newVegas:LeftLeg
			{
				OFFSET -0.021200 -31.938179 0.493100
				CHANNELS 3 Xrotation Yrotation Zrotation
				JOINT newVegas:LeftFoot
				{
					OFFSET 0.021200 -31.938179 -4.336299
					CHANNELS 3 Xrotation Yrotation Zrotation
					JOINT newVegas:LeftToeBase
					{
						OFFSET 0.943001 -26.722000 15.023500
						CHANNELS 3 Xrotation Yrotation Zrotation
						End Site
						{
							OFFSET 0.000000 30.670183 0.000000
						}
					}
				}
				JOINT newVegas:Left_PantLeg
				{
					OFFSET 0.663870 -9.044666 -1.108900
					CHANNELS 3 Xrotation Yrotation Zrotation
					End Site
					{
						OFFSET 1.415995 20.635357 0.000000
					}
				}
			}
		}
		JOINT newVegas:RightUpLeg
		{
			OFFSET -18.735201 -5.666702 -4.541200
			CHANNELS 3 Xrotation Yrotation Zrotation
			JOINT newVegas:RightLeg
			{
				OFFSET 0.018946 -31.938133 0.493100
				CHANNELS 3 Xrotation Yrotation Zrotation
				JOINT newVegas:RightFoot
				{
					OFFSET -0.018946 -31.938126 -4.336299
					CHANNELS 3 Xrotation Yrotation Zrotation
					JOINT newVegas:RightToeBase
					{
						OFFSET -0.943001 -26.722004 15.023500
						CHANNELS 3 Xrotation Yrotation Zrotation
						End Site
						{
							OFFSET 0.000000 30.670187 0.000000
						}
					}
				}
				JOINT newVegas:Right_PantLeg
				{
					OFFSET -0.661674 -9.044716 -1.108900
					CHANNELS 3 Xrotation Yrotation Zrotation
					End Site
					{
						OFFSET -1.415958 20.635269 0.000000
					}
				}
			}
		}
	}
	JOINT newVegas:Spine
	{
		OFFSET 0.000000 10.199997 -0.299500
		CHANNELS 3 Xrotation Yrotation Zrotation
		JOINT newVegas:Spine1
		{
			OFFSET 0.000000 11.900002 -1.516600
			CHANNELS 3 Xrotation Yrotation Zrotation
			JOINT newVegas:Spine2
			{
				OFFSET 0.000000 13.600006 -2.842500
				CHANNELS 3 Xrotation Yrotation Zrotation
				JOINT newVegas:Neck
				{
					OFFSET 0.000000 9.624100 -2.890100
					CHANNELS 3 Xrotation Yrotation Zrotation
					JOINT newVegas:Head
					{
						OFFSET 0.000000 14.068802 -1.351900
						CHANNELS 3 Xrotation Yrotation Zrotation
						JOINT newVegas:Hair_Back
						{
							OFFSET 0.000000 3.231903 -17.524799
							CHANNELS 3 Xrotation Yrotation Zrotation
							End Site
							{
								OFFSET 0.000000 19.849884 0.000000
							}
						}
						JOINT newVegas:Hair_Front
						{
							OFFSET 0.000000 31.260406 4.573800
							CHANNELS 3 Xrotation Yrotation Zrotation
							JOINT newVegas:Hair_Front1
							{
								OFFSET 0.000000 2.284103 11.993300
								CHANNELS 3 Xrotation Yrotation Zrotation
								JOINT newVegas:Hair_Front2
								{
									OFFSET 0.000000 2.284103 11.993300
									CHANNELS 3 Xrotation Yrotation Zrotation
									End Site
									{
										OFFSET 0.000000 12.208862 0.000000
									}
								}
							}
						}
						JOINT newVegas:Jowel
						{
							OFFSET 0.000000 -7.458206 6.864100
							CHANNELS 3 Xrotation Yrotation Zrotation
							End Site
							{
								OFFSET 0.000000 19.849884 0.000000
							}
						}
					}
				}
				JOINT newVegas:LeftShoulder
				{
					OFFSET 15.263000 10.923401 -0.547700
					CHANNELS 3 Xrotation Yrotation Zrotation
					JOINT newVegas:LeftArm
					{
						OFFSET 25.438599 -2.830597 -13.032500
						CHANNELS 3 Xrotation Yrotation Zrotation
						JOINT newVegas:LeftForeArm
						{
							OFFSET 29.960503 0.000000 0.000000
							CHANNELS 3 Xrotation Yrotation Zrotation
							JOINT newVegas:LeftHand
							{
								OFFSET 27.849251 0.000000 0.000000
								CHANNELS 3 Xrotation Yrotation Zrotation
								JOINT newVegas:LeftHandThumb1
								{
									OFFSET 4.487587 -3.305161 6.305391
									CHANNELS 3 Xrotation Yrotation Zrotation
									JOINT newVegas:LeftHandThumb2
									{
										OFFSET 5.480453 -3.164139 3.164143
										CHANNELS 3 Xrotation Yrotation Zrotation
										JOINT newVegas:LeftHandThumb3
										{
											OFFSET 5.159721 -2.978973 2.978967
											CHANNELS 3 Xrotation Yrotation Zrotation
											End Site
											{
												OFFSET 2.494507 5.926697 1.738678
											}
										}
									}
								}
								JOINT newVegas:LeftHandIndex1
								{
									OFFSET 18.578728 -0.527832 5.208049
									CHANNELS 3 Xrotation Yrotation Zrotation
									JOINT newVegas:LeftHandIndex2
									{
										OFFSET 3.192009 0.000000 0.000000
										CHANNELS 3 Xrotation Yrotation Zrotation
										JOINT newVegas:LeftHandIndex3
										{
											OFFSET 3.835129 0.000000 0.000000
											CHANNELS 3 Xrotation Yrotation Zrotation
											End Site
											{
												OFFSET -0.034599 3.816971 0.371180
											}
										}
									}
								}
								JOINT newVegas:LeftHandMiddle1
								{
									OFFSET 18.476105 0.000000 0.000000
									CHANNELS 3 Xrotation Yrotation Zrotation
									JOINT newVegas:LeftHandMiddle2
									{
										OFFSET 3.324875 0.000000 0.000000
										CHANNELS 3 Xrotation Yrotation Zrotation
										JOINT newVegas:LeftHandMiddle3
										{
											OFFSET 4.596550 0.000000 0.000000
											CHANNELS 3 Xrotation Yrotation Zrotation
											End Site
											{
												OFFSET 0.057701 4.578827 0.399218
											}
										}
									}
								}
								JOINT newVegas:LeftHandRing1
								{
									OFFSET 17.732719 0.121887 -4.201567
									CHANNELS 3 Xrotation Yrotation Zrotation
									JOINT newVegas:LeftHandRing2
									{
										OFFSET 2.733170 0.000000 0.000000
										CHANNELS 3 Xrotation Yrotation Zrotation
										JOINT newVegas:LeftHandRing3
										{
											OFFSET 3.178268 0.000000 0.000000
											CHANNELS 3 Xrotation Yrotation Zrotation
											End Site
											{
												OFFSET 0.119102 3.170624 0.185394
											}
										}
									}
								}
								JOINT newVegas:LeftHandPinky1
								{
									OFFSET 15.989624 -0.606689 -7.535461
									CHANNELS 3 Xrotation Yrotation Zrotation
									JOINT newVegas:LeftHandPinky2
									{
										OFFSET 2.538986 0.000000 0.000000
										CHANNELS 3 Xrotation Yrotation Zrotation
										JOINT newVegas:LeftHandPinky3
										{
											OFFSET 2.593102 0.000000 0.000000
											CHANNELS 3 Xrotation Yrotation Zrotation
											End Site
											{
												OFFSET -0.150902 2.584198 0.152708
											}
										}
									}
								}
							}
							JOINT newVegas:Left_Sleeve
							{
								OFFSET 0.267448 -0.649796 0.577675
								CHANNELS 3 Xrotation Yrotation Zrotation
								End Site
								{
									OFFSET 0.000000 15.991241 0.000000
								}
							}
							JOINT newVegas:Left_CapeC
							{
								OFFSET 15.715958 -8.608795 -6.935905
								CHANNELS 3 Xrotation Yrotation Zrotation
								JOINT newVegas:Left_CapeC1
								{
									OFFSET 0.000000 -8.688499 0.000000
									CHANNELS 3 Xrotation Yrotation Zrotation
									End Site
									{
										OFFSET 0.000000 8.688499 0.000000
									}
								}
							}
						}
						JOINT newVegas:Left_CapeB
						{
							OFFSET 26.118385 -8.608795 -7.079235
							CHANNELS 3 Xrotation Yrotation Zrotation
							JOINT newVegas:Left_CapeB1
							{
								OFFSET 0.000000 -8.688499 0.000000
								CHANNELS 3 Xrotation Yrotation Zrotation
								End Site
								{
									OFFSET 0.000000 8.688499 0.000000
								}
							}
						}
						JOINT newVegas:Left_CapeA
						{
							OFFSET 5.115639 -8.608795 -10.395809
							CHANNELS 3 Xrotation Yrotation Zrotation
							JOINT newVegas:Left_CapeA1
							{
								OFFSET 0.000000 -8.688499 0.000000
								CHANNELS 3 Xrotation Yrotation Zrotation
								End Site
								{
									OFFSET 0.000000 8.688499 0.000000
								}
							}
						}
					}
				}
				JOINT newVegas:RightShoulder
				{
					OFFSET -15.263000 10.923401 -0.547700
					CHANNELS 3 Xrotation Yrotation Zrotation
					JOINT newVegas:RightArm
					{
						OFFSET -25.438599 -2.830597 -13.032500
						CHANNELS 3 Xrotation Yrotation Zrotation
						JOINT newVegas:RightForeArm
						{
							OFFSET -29.960503 0.000000 0.000000
							CHANNELS 3 Xrotation Yrotation Zrotation
							JOINT newVegas:RightHand
							{
								OFFSET -27.849251 0.000000 0.000000
								CHANNELS 3 Xrotation Yrotation Zrotation
								JOINT newVegas:RightHandThumb1
								{
									OFFSET -4.487587 -3.305161 6.305391
									CHANNELS 3 Xrotation Yrotation Zrotation
									JOINT newVegas:RightHandThumb2
									{
										OFFSET -5.480453 -3.164139 3.164143
										CHANNELS 3 Xrotation Yrotation Zrotation
										JOINT newVegas:RightHandThumb3
										{
											OFFSET -5.159721 -2.978973 2.978967
											CHANNELS 3 Xrotation Yrotation Zrotation
											End Site
											{
												OFFSET -2.494507 5.926697 1.738678
											}
										}
									}
								}
								JOINT newVegas:RightHandIndex1
								{
									OFFSET -18.578728 -0.527832 5.208049
									CHANNELS 3 Xrotation Yrotation Zrotation
									JOINT newVegas:RightHandIndex2
									{
										OFFSET -3.192009 0.000000 0.000000
										CHANNELS 3 Xrotation Yrotation Zrotation
										JOINT newVegas:RightHandIndex3
										{
											OFFSET -3.835129 0.000000 0.000000
											CHANNELS 3 Xrotation Yrotation Zrotation
											End Site
											{
												OFFSET 0.034599 3.816971 0.371180
											}
										}
									}
								}
								JOINT newVegas:RightHandMiddle1
								{
									OFFSET -18.476105 0.000000 0.000000
									CHANNELS 3 Xrotation Yrotation Zrotation
									JOINT newVegas:RightHandMiddle2
									{
										OFFSET -3.324875 0.000000 0.000000
										CHANNELS 3 Xrotation Yrotation Zrotation
										JOINT newVegas:RightHandMiddle3
										{
											OFFSET -4.596550 0.000000 0.000000
											CHANNELS 3 Xrotation Yrotation Zrotation
											End Site
											{
												OFFSET -0.057701 4.578827 0.399218
											}
										}
									}
								}
								JOINT newVegas:RightHandRing1
								{
									OFFSET -17.732719 0.121887 -4.201567
									CHANNELS 3 Xrotation Yrotation Zrotation
									JOINT newVegas:RightHandRing2
									{
										OFFSET -2.733170 0.000000 0.000000
										CHANNELS 3 Xrotation Yrotation Zrotation
										JOINT newVegas:RightHandRing3
										{
											OFFSET -3.178268 0.000000 0.000000
											CHANNELS 3 Xrotation Yrotation Zrotation
											End Site
											{
												OFFSET -0.119102 3.170624 0.185394
											}
										}
									}
								}
								JOINT newVegas:RightHandPinky1
								{
									OFFSET -15.989624 -0.606689 -7.535461
									CHANNELS 3 Xrotation Yrotation Zrotation
									JOINT newVegas:RightHandPinky2
									{
										OFFSET -2.538986 0.000000 0.000000
										CHANNELS 3 Xrotation Yrotation Zrotation
										JOINT newVegas:RightHandPinky3
										{
											OFFSET -2.593102 0.000000 0.000000
											CHANNELS 3 Xrotation Yrotation Zrotation
											End Site
											{
												OFFSET 0.150902 2.584198 0.152708
											}
										}
									}
								}
							}
							JOINT newVegas:Right_CapeC
							{
								OFFSET -15.715958 -8.608795 -6.935905
								CHANNELS 3 Xrotation Yrotation Zrotation
								JOINT newVegas:Right_CapeC1
								{
									OFFSET 0.000000 -8.688499 0.000000
									CHANNELS 3 Xrotation Yrotation Zrotation
									End Site
									{
										OFFSET 0.000000 8.688499 0.000000
									}
								}
							}
							JOINT newVegas:Right_Sleeve
							{
								OFFSET -0.267448 -0.649994 0.577675
								CHANNELS 3 Xrotation Yrotation Zrotation
								End Site
								{
									OFFSET 0.000000 15.991302 0.000000
								}
							}
						}
						JOINT newVegas:Right_CapeA
						{
							OFFSET -5.115540 -8.608795 -10.395824
							CHANNELS 3 Xrotation Yrotation Zrotation
							JOINT newVegas:Right_CapeA1
							{
								OFFSET 0.000000 -8.688499 0.000000
								CHANNELS 3 Xrotation Yrotation Zrotation
								End Site
								{
									OFFSET 0.000000 8.688499 0.000000
								}
							}
						}
						JOINT newVegas:Right_CapeB
						{
							OFFSET -26.118187 -8.608795 -7.079266
							CHANNELS 3 Xrotation Yrotation Zrotation
							JOINT newVegas:Right_CapeB1
							{
								OFFSET 0.000000 -8.688499 0.000000
								CHANNELS 3 Xrotation Yrotation Zrotation
								End Site
								{
									OFFSET 0.000000 8.688499 0.000000
								}
							}
						}
					}
				}
				JOINT newVegas:Left_Collar
				{
					OFFSET 18.625099 8.655502 8.828100
					CHANNELS 3 Xrotation Yrotation Zrotation
					JOINT newVegas:Left_Collar1
					{
						OFFSET 14.783401 10.540405 -1.259500
						CHANNELS 3 Xrotation Yrotation Zrotation
						End Site
						{
							OFFSET 0.000000 18.199875 0.000000
						}
					}
				}
				JOINT newVegas:Collar_Back
				{
					OFFSET 0.000000 15.630707 -20.132601
					CHANNELS 3 Xrotation Yrotation Zrotation
					End Site
					{
						OFFSET 0.000000 22.523010 0.000000
					}
				}
				JOINT newVegas:Left_Peck
				{
					OFFSET 17.239599 -5.132599 25.482599
					CHANNELS 3 Xrotation Yrotation Zrotation
					End Site
					{
						OFFSET 0.000000 22.523010 0.000000
					}
				}
				JOINT newVegas:Right_Peck
				{
					OFFSET -17.239599 -5.132202 25.482599
					CHANNELS 3 Xrotation Yrotation Zrotation
					End Site
					{
						OFFSET 0.000000 22.523010 0.000000
					}
				}
				JOINT newVegas:Right_Collar
				{
					OFFSET -18.625099 8.655792 8.828100
					CHANNELS 3 Xrotation Yrotation Zrotation
					JOINT newVegas:Right_Collar1
					{
						OFFSET -14.783401 10.539993 -1.259500
						CHANNELS 3 Xrotation Yrotation Zrotation
						End Site
						{
							OFFSET 0.000000 18.199631 0.000000
						}
					}
				}
			}
		}
		JOINT newVegas:Belly
		{
			OFFSET 0.000000 -6.540398 9.014299
			CHANNELS 3 Xrotation Yrotation Zrotation
			End Site
			{
				OFFSET 0.000000 11.566666 0.000000
			}
		}
	}
	JOINT newVegas:ElvisFacialAnim_Joint
	{
		OFFSET 1.000000 -95.330101 -8.825800
		CHANNELS 3 Xrotation Yrotation Zrotation
		End Site
		{
			OFFSET 0.000000 35.315800 0.000000
		}
	}
}
MOTION
Frames: 4
Frame Time: 0.033333
-0.586236 93.049652 4.276528 4.811757 -7.494458 1.454401 0.000000 -0.000001 0.000000 -10.576338 -0.317844 -0.152574 22.305492 -0.144019 -0.745707 -16.518493 13.703711 0.054612 -0.000000 0.000000 -0.000000 -0.000001 0.000001 -0.000000 -7.660925 -1.751718 -2.374747 22.153020 0.116622 0.811305 -19.136889 -12.861941 0.674006 0.000000 -0.000000 0.000000 0.000001 0.000000 -0.000000 -0.824995 -0.067175 -0.021837 -1.650024 -0.130166 -0.049821 -1.650023 -0.130164 -0.049821 1.652817 -0.029662 0.771756 1.652820 -0.029665 0.771757 0.000000 0.000000 -0.000000 1.652889 -0.029663 0.771758 1.652745 -0.029658 0.771756 -0.000000 0.000000 -0.000001 0.000000 0.000000 -0.000000 0.035353 -8.367652 -14.458751 21.578723 6.883185 -65.665739 -0.030526 -55.386752 -0.005236 17.388999 6.408997 -7.731704 -11.484898 -8.520967 8.431764 17.299286 37.840310 -11.102770 -0.000000 0.000000 -0.000001 -7.866990 1.731570 -38.972547 0.112649 0.427704 -23.432735 0.000000 -0.000000 -0.000002 -1.276348 0.701926 -30.474743 -0.902874 -2.748940 -35.943782 -0.000006 -0.000001 0.000000 0.453659 3.042763 -33.784937 -0.762524 -2.632509 -32.664659 0.000003 -0.000000 -0.000003 0.731337 -0.185409 -20.696969 -0.186409 -1.691437 -14.330732 -0.000001 -0.000002 -0.000001 0.000001 -0.000004 0.000001 0.000001 -0.000004 0.000001 0.000000 -0.000003 0.000001 0.000001 0.000001 0.000001 0.000001 0.000000 -0.000000 0.000001 0.000001 0.000001 0.000002 0.000001 0.000001 -1.291203 14.231195 21.263287 23.783292 -19.621523 54.192326 -0.040203 61.553050 0.012243 8.776855 0.108162 10.026298 -15.415817 0.287527 -9.820745 21.152684 -37.976467 7.064536 0.000001 0.000001 0.000001 -8.026173 -2.442899 24.869508 0.179867 -0.841738 21.304315 -0.000002 0.000002 0.000005 -4.515080 1.483498 37.090540 -1.304216 2.738401 50.560298 -0.000000 -0.000000 0.000000 2.005007 -3.014535 30.649692 -1.861990 4.279534 43.817754 0.000001 0.000001 -0.000004 2.982977 3.200360 20.080461 -2.499228 6.589707 41.654609 -0.000001 -0.000004 0.000001 -0.000000 0.000000 0.000002 -0.000000 -0.000000 0.000000 -0.000000 -0.000000 0.000001 0.000001 0.000002 -0.000000 0.000001 0.000003 0.000002 0.000001 0.000002 -0.000000 0.000001 0.000002 0.000002 0.000000 -0.000000 -0.000000 0.000000 -0.000000 -0.000000 0.000000 -0.000000 -0.000000 0.000000 -0.000000 -0.000000 0.000000 -0.000000 -0.000000 0.000000 -0.000000 -0.000000 0.000000 -0.000000 -0.000000 -0.000000 0.000001 -0.000000 0.000000 -0.000001 0.000000 
-0.609930 93.060059 4.272643 4.750057 -7.488197 1.471098 0.000000 -0.000001 0.000000 -10.464950 -0.276034 -0.171852 22.211270 -0.142995 -0.741304 -16.472666 13.764013 0.048360 -0.000000 -0.000000 -0.000000 0.000002 0.000001 -0.000000 -7.604992 -1.774550 -2.382410 22.170405 0.107860 0.812571 -19.154403 -12.835933 0.656284 0.000000 0.000002 -0.000000 -0.000003 0.000001 -0.000000 -0.825325 -0.070235 -0.025069 -1.650689 -0.135837 -0.059850 -1.650689 -0.135838 -0.059850 1.656079 -0.029494 0.766698 1.656083 -0.029488 0.766698 -0.000000 -0.000000 -0.000000 1.656149 -0.029495 0.766698 1.656077 -0.029491 0.766698 -0.000000 -0.000001 -0.000000 -0.000000 -0.000000 0.000000 0.024417 -8.411036 -14.587032 21.701188 6.752131 -65.473497 -0.030500 -55.333903 -0.005260 18.063130 6.261149 -7.785607 -11.329041 -8.267578 8.446276 17.339641 37.886988 -11.136324 -0.000001 0.000000 -0.000001 -7.870601 1.731709 -39.016066 0.113362 0.428995 -23.521413 -0.000002 -0.000000 0.000001 -1.320366 0.595733 -29.679293 -0.909881 -2.758596 -36.089924 -0.000002 -0.000000 0.000000 0.523804 3.222440 -32.681748 -0.755254 -2.621146 -32.505649 -0.000001 -0.000001 -0.000001 0.808757 -0.028656 -20.219047 -0.186206 -1.690651 -14.324056 -0.000003 0.000000 -0.000001 0.000000 -0.000001 0.000000 0.000000 -0.000001 0.000000 -0.000000 -0.000001 0.000000 -0.000000 0.000001 -0.000001 -0.000000 0.000000 -0.000001 -0.000000 0.000001 -0.000001 0.000000 0.000001 -0.000002 -1.298020 14.248079 21.298470 23.933150 -19.529256 54.192596 -0.040391 61.774273 0.012477 8.750799 0.157458 10.251233 -15.462362 0.380152 -9.867180 21.097935 -37.913765 7.033556 -0.000002 -0.000001 -0.000002 -8.046603 -2.437715 25.185935 0.183065 -0.848985 21.513627 0.000001 -0.000001 0.000001 -4.560924 1.523516 37.247661 -1.310457 2.743526 50.691034 -0.000000 0.000000 0.000000 1.931942 -2.890918 30.669400 -1.867157 4.284908 43.886967 0.000004 0.000001 -0.000001 2.991943 3.172829 20.102835 -2.507032 6.598351 41.722603 -0.000002 -0.000000 -0.000001 -0.000001 -0.000000 0.000001 -0.000001 0.000001 -0.000001 -0.000001 -0.000000 0.000001 -0.000000 0.000002 -0.000001 -0.000000 0.000003 -0.000001 -0.000000 0.000002 -0.000001 -0.000000 0.000003 -0.000001 0.000000 0.000000 0.000000 0.000000 0.000000 0.000000 0.000000 0.000000 0.000000 0.000000 0.000000 0.000000 0.000000 0.000000 0.000000 0.000000 0.000000 0.000000 0.000000 0.000000 0.000000 -0.000000 0.000001 -0.000000 0.000000 -0.000001 0.000000 
-0.638366 93.063103 4.267896 4.682508 -7.497187 1.517776 -0.000000 -0.000000 -0.000000 -10.308820 -0.168952 -0.221497 22.082439 -0.140298 -0.735695 -16.431512 13.832485 0.047982 -0.000000 -0.000000 -0.000000 -0.000001 -0.000000 -0.000000 -7.603059 -1.797060 -2.430684 22.305738 0.104410 0.818076 -19.230374 -12.788343 0.642198 0.000000 0.000000 -0.000000 -0.000000 0.000001 -0.000000 -0.819365 -0.074582 -0.032003 -1.638803 -0.143643 -0.080795 -1.638803 -0.143646 -0.080795 1.645746 -0.028089 0.759468 1.645747 -0.028093 0.759468 0.000000 0.000000 0.000000 1.645888 -0.028095 0.759468 1.645671 -0.028095 0.759468 0.000000 0.000000 -0.000000 0.000000 0.000000 -0.000000 0.005922 -8.501588 -14.770827 21.697421 7.091997 -65.501541 -0.030370 -55.367443 -0.004926 18.006853 6.072879 -7.102622 -10.795800 -7.361418 8.408975 17.243975 37.776158 -11.056741 -0.000000 -0.000001 -0.000001 -7.675717 1.792696 -37.229374 0.108274 0.419696 -22.881699 -0.000001 -0.000002 -0.000003 -1.741427 -0.667250 -24.067199 -0.680139 -2.412096 -30.999592 0.000001 0.000001 0.000001 0.524819 3.708505 -26.146171 -0.532269 -2.233683 -27.244774 0.000000 -0.000001 -0.000001 1.386142 1.467668 -18.605218 -0.126298 -1.444371 -12.152810 -0.000001 -0.000000 0.000001 -0.000000 -0.000004 0.000002 -0.000000 -0.000004 0.000002 -0.000001 -0.000003 0.000002 0.000000 0.000001 0.000000 0.000000 0.000000 0.000001 0.000000 0.000001 0.000000 0.000000 0.000002 0.000000 -1.339433 14.359964 21.517749 24.520099 -19.319334 54.003680 -0.040737 62.422998 0.012565 8.349528 0.295399 10.331390 -16.256400 1.566269 -9.477298 21.040159 -37.847465 7.000888 0.000001 0.000000 -0.000000 -8.201767 -2.223096 26.004369 0.171083 -0.821513 20.723562 -0.000002 -0.000002 0.000000 -4.573749 1.708741 35.920108 -1.310723 2.743739 50.696362 0.000001 0.000000 -0.000000 2.183909 -3.405295 29.734491 -1.897127 4.315737 44.286472 -0.000000 -0.000001 -0.000001 3.507980 1.917941 19.440482 -2.462397 6.548790 41.333423 0.000003 -0.000000 -0.000002 -0.000000 -0.000001 -0.000001 -0.000000 -0.000003 -0.000000 -0.000000 -0.000001 -0.000001 -0.000000 -0.000003 0.000002 -0.000000 -0.000002 0.000002 -0.000000 -0.000003 0.000002 -0.000000 -0.000002 0.000002 0.000000 0.000001 -0.000000 0.000000 0.000001 -0.000000 0.000000 0.000001 -0.000000 0.000000 0.000001 -0.000000 0.000000 0.000001 -0.000000 0.000000 0.000001 -0.000000 0.000000 0.000001 -0.000000 -0.000000 0.000001 -0.000000 -0.000000 -0.000000 -0.000000 
-0.673590 93.030548 4.256011 4.614693 -7.569533 1.589953 0.000000 0.000001 -0.000000 -10.219986 0.005978 -0.252467 22.128281 -0.139165 -0.741678 -16.490144 13.770736 0.025605 0.000000 -0.000000 -0.000000 0.000001 0.000001 -0.000000 -7.759360 -1.622045 -2.475970 22.743968 0.132084 0.838853 -19.455898 -12.891628 0.585049 -0.000000 -0.000000 0.000000 -0.000003 0.000000 -0.000000 -0.797532 -0.081644 -0.030831 -1.595168 -0.156392 -0.091408 -1.595169 -0.156388 -0.091408 1.680301 -0.023617 0.730499 1.680313 -0.023620 0.730499 -0.000000 0.000000 -0.000000 1.680369 -0.023617 0.730499 1.680227 -0.023614 0.730497 0.000000 -0.000001 -0.000001 -0.000000 0.000000 -0.000000 0.022841 -8.457149 -14.518325 21.190679 8.252011 -66.301828 -0.030714 -56.128958 -0.003876 15.034759 6.469914 -4.697279 -8.751511 -4.142215 8.980309 16.449962 36.832840 -10.395791 -0.000002 0.000001 -0.000003 -7.914706 1.027381 -33.540709 0.096651 0.397594 -21.378238 -0.000002 0.000000 -0.000001 -1.639590 -1.650218 -17.140850 -0.482231 -2.046936 -25.916461 0.000003 0.000003 0.000004 0.909511 5.390581 -19.394486 -0.309431 -1.734749 -20.815683 -0.000001 0.000001 0.000000 2.006049 3.250331 -18.899261 -0.057982 -1.094802 -9.102332 -0.000001 -0.000002 0.000003 -0.000001 0.000004 -0.000002 -0.000001 0.000004 -0.000002 -0.000002 0.000004 -0.000002 -0.000000 0.000000 -0.000000 -0.000000 0.000001 0.000000 -0.000000 0.000000 -0.000000 -0.000000 -0.000000 0.000000 -1.316661 14.356612 21.299472 25.907734 -18.055745 53.752202 -0.041487 64.391854 0.011338 6.308364 1.031476 8.777560 -18.205396 4.877992 -9.648159 21.136821 -37.958308 7.055582 0.000001 -0.000000 -0.000001 -8.539198 -1.662319 26.736033 0.154565 -0.781754 19.588549 0.000001 0.000001 0.000003 -5.018466 3.250953 30.716501 -1.177587 2.629143 47.856448 0.000001 0.000002 0.000002 2.783551 -5.083223 25.641435 -1.816680 4.231933 43.207138 -0.000001 0.000001 -0.000004 4.666368 -1.304455 17.276721 -2.228775 6.277735 39.246445 -0.000003 0.000002 -0.000002 -0.000000 -0.000001 0.000000 -0.000001 -0.000001 0.000000 -0.000000 -0.000001 0.000001 -0.000001 -0.000001 -0.000002 -0.000001 0.000000 -0.000000 -0.000001 -0.000001 -0.000002 -0.000001 -0.000000 -0.000001 0.000000 0.000002 -0.000000 0.000000 0.000002 -0.000000 0.000000 0.000002 -0.000000 0.000000 0.000002 -0.000000 0.000000 0.000002 -0.000000 0.000000 0.000002 -0.000000 0.000000 0.000002 -0.000000 0.000000 0.000000 -0.000000 0.000000 0.000001 -0.000000 
